<svg width="23" height="22" viewBox="0 0 23 22" fill="none" xmlns="http://www.w3.org/2000/svg">
<mask id="mask0_290:853" style="mask-type:alpha" maskUnits="userSpaceOnUse" x="5" y="4" width="13" height="14">
<path d="M17 11.9168H12.4167V16.5002C12.4167 17.0043 12.0042 17.4168 11.5 17.4168C10.9959 17.4168 10.5834 17.0043 10.5834 16.5002V11.9168H6.00004C5.49587 11.9168 5.08337 11.5043 5.08337 11.0002C5.08337 10.496 5.49587 10.0835 6.00004 10.0835H10.5834V5.50016C10.5834 4.996 10.9959 4.5835 11.5 4.5835C12.0042 4.5835 12.4167 4.996 12.4167 5.50016V10.0835H17C17.5042 10.0835 17.9167 10.496 17.9167 11.0002C17.9167 11.5043 17.5042 11.9168 17 11.9168Z" fill="black"/>
</mask>
<g mask="url(#mask0_290:853)">
<rect x="0.5" width="22" height="22" fill="#FAFAFA"/>
</g>
</svg>
