<svg width="1411" height="1100" viewBox="0 0 1411 1100" fill="none" xmlns="http://www.w3.org/2000/svg">
<g style="mix-blend-mode:multiply" opacity="0.1">
<path opacity="0.8" d="M-861.481 977.308C-861.048 967.66 -857.892 958.354 -852.338 950.401L39.1047 -324.634C46.9136 -335.816 58.6181 -343.282 72.0718 -345.662C85.5255 -348.043 99.1055 -345.067 110.305 -337.276L1388.95 552.11C1403.39 562.155 1411.56 578.657 1410.79 596.222C1410.35 605.871 1407.2 615.177 1401.64 623.13L510.201 1898.16C502.392 1909.35 490.687 1916.81 477.234 1919.19C463.78 1921.59 450.2 1918.6 439 1910.81L-839.623 1021.4C-854.069 1011.36 -862.239 994.874 -861.481 977.308ZM1406.71 596.006C1407.41 579.847 1399.89 564.662 1386.6 555.428L107.96 -333.958C97.6626 -341.136 85.1647 -343.877 72.7931 -341.677C60.4215 -339.477 49.6548 -332.605 42.4772 -322.326L-848.983 952.709C-854.105 960.031 -857.009 968.579 -857.387 977.452C-858.091 993.629 -850.57 1008.8 -837.297 1018.05L441.345 1907.42C451.661 1914.59 464.141 1917.32 476.53 1915.14C488.902 1912.94 499.668 1906.06 506.864 1895.78L1398.31 620.749C1403.43 613.445 1406.33 604.879 1406.71 596.006Z" fill="#4F73D1"/>
<path opacity="0.8" d="M-868.28 927.966C-867.865 918.336 -864.655 909.084 -858.993 901.203L25.7412 -330.568C33.496 -341.37 45.02 -348.512 58.1671 -350.676C71.3142 -352.84 84.5334 -349.774 95.3722 -342.02L1330.62 540.658C1344.38 550.487 1352.16 566.448 1351.44 583.328C1351 592.958 1347.81 602.228 1342.15 610.109L457.414 1841.88C441.399 1864.19 410.145 1869.33 387.783 1853.35L-847.487 970.653C-861.247 960.825 -869.038 944.864 -868.28 927.966ZM1347.32 583.147C1348.01 567.638 1340.87 552.994 1328.22 543.959L92.9736 -338.701C83.0366 -345.807 70.8994 -348.638 58.8344 -346.654C46.7513 -344.671 36.1831 -338.106 29.0595 -328.187L-855.674 903.583C-860.868 910.815 -863.808 919.309 -864.204 928.146C-864.89 943.656 -857.748 958.3 -845.106 967.317L390.145 1850.01C410.686 1864.67 439.361 1859.97 454.059 1839.5L1338.79 607.728C1343.99 600.497 1346.94 592.002 1347.32 583.147Z" fill="#4F73D1"/>
<path opacity="0.8" d="M-875.116 878.642C-874.701 869.011 -871.436 859.796 -865.665 852.005L12.3594 -336.483C28.2838 -358.034 58.8162 -362.633 80.4214 -346.763L1272.28 529.206C1285.37 538.819 1292.75 554.238 1292.05 570.451C1291.63 580.082 1288.37 589.297 1282.62 597.088L404.59 1785.58C396.872 1796.02 385.546 1802.83 372.688 1804.76C359.829 1806.71 346.989 1803.54 336.529 1795.86L-855.368 919.887C-868.443 910.274 -875.837 894.855 -875.116 878.642ZM1287.94 570.289C1288.58 555.447 1281.82 541.308 1269.85 532.507L77.9867 -343.462C58.2029 -358.016 30.2314 -353.778 15.6415 -334.048L-862.383 854.439C-867.667 861.581 -870.661 870.021 -871.04 878.84C-871.689 893.682 -864.926 907.803 -852.933 916.604L338.909 1792.59C348.503 1799.64 360.262 1802.53 372.038 1800.76C383.815 1798.99 394.185 1792.74 401.254 1783.18L1279.28 594.69C1284.56 587.548 1287.56 579.108 1287.94 570.289Z" fill="#4F73D1"/>
<path opacity="0.8" d="M-881.951 829.318C-881.536 819.687 -878.217 810.526 -872.338 802.807L-1.04022 -342.398C6.62445 -352.461 17.7517 -358.954 30.3036 -360.667C42.8557 -362.38 55.3356 -359.116 65.4349 -351.469L1213.9 517.809C1226.31 527.205 1233.31 542.083 1232.62 557.611C1232.19 567.241 1228.89 576.403 1223.01 584.121L351.696 1729.34C335.879 1750.12 306.05 1754.21 285.221 1738.43L-863.231 869.12C-875.638 859.742 -882.636 844.863 -881.951 829.318ZM1228.57 557.43C1229.18 543.237 1222.78 529.639 1211.45 521.055L62.9821 -348.223C53.7485 -355.203 42.3507 -358.196 30.8808 -356.627C19.4109 -355.058 9.23944 -349.125 2.24207 -339.927L-869.092 805.296C-874.448 812.347 -877.496 820.715 -877.875 829.516C-878.488 843.709 -872.104 857.307 -860.76 865.891L287.709 1735.17C306.754 1749.58 334.004 1745.86 348.449 1726.87L1219.77 581.651C1225.14 574.599 1228.17 566.231 1228.57 557.43Z" fill="#4F73D1"/>
<path opacity="0.8" d="M-888.803 779.993C-888.371 770.363 -884.998 761.238 -879.029 753.609L-14.4216 -348.313C-6.8111 -358.016 4.13586 -364.184 16.3812 -365.663C28.6447 -367.159 40.7457 -363.787 50.4843 -356.195L1155.54 506.375C1167.29 515.536 1173.9 529.874 1173.25 544.734C1172.84 554.364 1169.45 563.49 1163.48 571.118L298.873 1673.06C291.262 1682.76 280.315 1688.93 268.052 1690.41C255.788 1691.9 243.687 1688.55 233.967 1680.96L-871.112 818.371C-882.834 809.209 -889.453 794.872 -888.803 779.993ZM1169.18 544.554C1169.77 530.992 1163.73 517.917 1153.04 509.567L47.9775 -353.002C39.1046 -359.928 28.0675 -362.994 16.9042 -361.623C5.72284 -360.27 -4.25024 -354.644 -11.1935 -345.807L-875.801 756.152C-881.247 763.095 -884.331 771.409 -884.71 780.192C-885.305 793.736 -879.263 806.811 -868.569 815.179L236.51 1677.75C245.383 1684.67 256.42 1687.72 267.583 1686.37C278.764 1685.02 288.737 1679.39 295.681 1670.55L1160.29 568.612C1165.72 561.65 1168.8 553.336 1169.18 544.554Z" fill="#4F73D1"/>
<path opacity="0.8" d="M-895.675 730.669C-895.26 721.021 -891.798 711.949 -885.702 704.429L-27.8035 -354.247C-12.2037 -373.508 16.2185 -376.501 35.5334 -360.938L1097.22 494.941C1108.29 503.85 1114.52 517.664 1113.9 531.857C1113.49 541.506 1110.04 550.577 1103.95 558.098L246.031 1616.76C238.475 1626.1 227.708 1631.92 215.752 1633.18C203.777 1634.45 192.036 1631 182.694 1623.45L-878.975 767.604C-890.048 758.677 -896.288 744.88 -895.675 730.669ZM1109.83 531.695C1110.39 518.782 1104.72 506.23 1094.66 498.115L32.9725 -357.764C15.407 -371.921 -10.4183 -369.197 -24.6114 -351.686L-882.528 707.008C-888.064 713.843 -891.202 722.085 -891.581 730.849C-892.14 743.762 -886.477 756.314 -876.414 764.43L185.273 1620.31C193.786 1627.18 204.462 1630.32 215.319 1629.16C226.193 1628.01 235.986 1622.71 242.839 1614.23L1100.76 555.555C1106.31 548.72 1109.45 540.46 1109.83 531.695Z" fill="#4F73D1"/>
<path opacity="0.8" d="M-902.528 681.345C-902.113 671.697 -898.596 662.679 -892.374 655.231L-41.1848 -360.162C-33.6644 -369.125 -23.1143 -374.626 -11.446 -375.672C0.22229 -376.718 11.6021 -373.147 20.5832 -365.663L1038.88 483.507C1049.45 492.326 1055.17 505.257 1054.57 518.999C1054.16 528.665 1050.64 537.683 1044.4 545.113L193.209 1560.51C177.699 1579.01 149.998 1581.46 131.441 1566.01L-886.856 716.837C-897.424 708.018 -903.141 695.087 -902.528 681.345ZM1050.48 518.837C1051.02 506.375 1045.84 494.652 1036.26 486.663L17.9681 -362.525C9.81659 -369.324 -0.499146 -372.534 -11.0673 -371.596C-21.6536 -370.658 -31.2117 -365.663 -38.0287 -357.529L-889.236 657.846C-894.881 664.591 -898.073 672.761 -898.452 681.507C-898.993 693.969 -893.799 705.709 -884.223 713.681L134.074 1562.87C150.9 1576.9 176.004 1574.66 190.071 1557.89L1041.26 542.498C1046.91 535.771 1050.1 527.583 1050.48 518.837Z" fill="#4F73D1"/>
<path opacity="0.8" d="M-909.417 632.021C-909.002 622.354 -905.395 613.373 -899.029 606.033L-54.5665 -366.077C-47.1002 -374.662 -36.7303 -379.838 -25.3687 -380.649C-13.989 -381.461 -2.98792 -377.8 5.6145 -370.352L980.502 472.109C990.421 480.676 995.759 493.083 995.2 506.158C994.768 515.825 991.197 524.806 984.831 532.146L140.332 1504.26C132.884 1512.86 122.496 1518.03 111.134 1518.85C99.7723 1519.64 88.7532 1516 80.1508 1508.55L-894.719 666.07C-904.638 657.503 -909.994 645.096 -909.417 632.021ZM991.143 505.978C991.666 494.147 986.814 482.93 977.869 475.193L2.9635 -367.286C-4.82739 -374.031 -14.7643 -377.331 -25.062 -376.591C-35.3416 -375.852 -44.7196 -371.181 -51.4645 -363.408L-895.945 608.702C-901.698 615.339 -904.944 623.454 -905.323 632.201C-905.846 644.032 -900.995 655.249 -892.05 662.986L82.838 1505.46C90.6288 1512.19 100.584 1515.49 110.864 1514.77C121.143 1514.05 130.503 1509.36 137.266 1501.61L981.747 529.477C987.518 522.84 990.764 514.707 991.143 505.978Z" fill="#4F73D1"/>
<path opacity="0.8" d="M-916.306 582.697C-915.891 573.138 -912.122 563.959 -905.702 556.835L-67.9297 -372.011C-60.5175 -380.234 -50.3281 -385.086 -39.255 -385.663C-28.1818 -386.24 -17.5414 -382.489 -9.29968 -375.095L922.197 460.676C931.449 468.971 936.445 480.856 935.903 493.282C935.489 502.84 931.719 512.02 925.299 519.143L87.5272 1447.99C80.1151 1456.19 69.9436 1461.05 58.8524 1461.64C47.7792 1462.22 37.139 1458.47 28.8972 1451.07L-902.6 615.285C-911.851 606.989 -916.847 595.104 -916.306 582.697ZM931.81 493.101C932.297 481.902 927.788 471.19 919.456 463.705L-12.059 -372.065C-19.4892 -378.738 -29.0654 -382.11 -39.0565 -381.587C-49.0296 -381.064 -58.2092 -376.7 -64.8999 -369.288L-902.672 559.576C-908.461 565.997 -911.851 574.275 -912.23 582.877C-912.717 594.076 -908.208 604.789 -899.877 612.273L31.6384 1448.04C39.0686 1454.7 48.6449 1458.09 58.636 1457.57C68.6091 1457.04 77.7886 1452.68 84.4794 1445.27L922.251 516.42C928.04 510 931.449 501.722 931.81 493.101Z" fill="#4F73D1"/>
<path opacity="0.8" d="M-923.231 533.372C-922.816 523.796 -918.957 514.653 -912.374 507.637L-81.3113 -377.926C-73.9532 -385.771 -63.9622 -390.298 -53.1776 -390.64C-42.411 -391.001 -32.1315 -387.142 -24.2684 -379.802L863.856 449.26C872.476 457.303 877.111 468.647 876.606 480.423C876.191 490 872.332 499.143 865.749 506.158L34.6861 1391.72C19.4831 1407.92 -6.10767 1408.76 -22.3567 1393.6L-910.481 564.536C-919.101 556.492 -923.736 545.131 -923.231 533.372ZM872.512 480.243C872.963 469.675 868.797 459.467 861.06 452.235L-27.0637 -376.826C-34.1332 -383.427 -43.3668 -386.889 -53.0513 -386.565C-62.7358 -386.24 -71.717 -382.182 -78.3356 -375.131L-909.381 510.432C-915.296 516.727 -918.759 524.932 -919.137 533.553C-919.588 544.121 -915.422 554.328 -907.686 561.56L-19.5613 1390.62C-4.9715 1404.26 18.0403 1403.5 31.6924 1388.94L862.755 503.363C868.671 497.069 872.133 488.863 872.512 480.243Z" fill="#4F73D1"/>
<path opacity="0.8" d="M-930.156 484.03C-929.742 474.418 -925.792 465.328 -919.047 458.439L-94.6927 -383.859C-79.5799 -399.297 -54.7104 -399.585 -39.2369 -384.527L805.496 437.844C813.468 445.617 817.778 456.438 817.291 467.565C816.876 477.177 812.927 486.284 806.182 493.174L-18.1727 1335.47C-33.2675 1350.91 -58.155 1351.22 -73.6286 1336.14L-918.362 513.751C-926.333 505.978 -930.625 495.157 -930.156 484.03ZM813.215 467.384C813.648 457.429 809.807 447.727 802.665 440.766L-42.0503 -381.605C-55.9188 -395.095 -78.2093 -394.824 -91.7352 -381.01L-916.108 461.289C-922.149 467.456 -925.684 475.608 -926.063 484.211C-926.495 494.184 -922.654 503.868 -915.494 510.829L-70.7791 1333.2C-56.9106 1346.69 -34.6201 1346.42 -21.0943 1332.6L803.26 490.306C809.302 484.138 812.836 475.987 813.215 467.384Z" fill="#4F73D1"/>
<path opacity="0.8" d="M-937.1 434.706C-936.667 425.039 -932.627 416.004 -925.702 409.223L-108.057 -389.793C-93.052 -404.455 -68.8679 -404.202 -54.1697 -389.234L747.172 426.446C754.531 433.93 758.48 444.228 758.029 454.706C757.615 464.373 753.557 473.426 746.632 480.189L-71.014 1279.2C-86.0186 1293.87 -110.203 1293.61 -124.901 1278.65L-926.243 462.984C-933.601 455.5 -937.551 445.184 -937.1 434.706ZM753.935 454.526C754.35 445.166 750.816 435.986 744.251 429.296L-57.0733 -386.384C-70.2023 -399.748 -91.7897 -399.964 -105.171 -386.871L-922.835 412.145C-929.021 418.186 -932.627 426.266 -933.006 434.886C-933.403 444.228 -929.868 453.426 -923.304 460.116L-121.979 1275.8C-108.85 1289.16 -87.2631 1289.38 -73.8635 1276.27L743.782 477.249C749.95 471.226 753.557 463.146 753.935 454.526Z" fill="#4F73D1"/>
<path opacity="0.8" d="M-944.061 385.382C-943.628 375.661 -939.48 366.68 -932.357 360.043L-121.42 -395.708C-114.188 -402.435 -104.774 -405.97 -94.8914 -405.627C-85.0085 -405.302 -75.8651 -401.136 -69.1022 -393.941L688.831 415.03C695.684 422.334 699.201 431.856 698.768 441.848C698.335 451.568 694.188 460.567 687.064 467.204L-123.873 1222.94C-138.769 1236.82 -162.25 1236.03 -176.173 1221.17L-934.124 412.199C-940.959 404.895 -944.494 395.373 -944.061 385.382ZM694.693 441.667C695.071 432.776 691.951 424.318 685.856 417.808L-72.0959 -391.145C-78.0833 -397.548 -86.2349 -401.245 -95.0177 -401.551C-103.8 -401.858 -112.186 -398.72 -118.607 -392.732L-929.561 363.001C-935.91 368.916 -939.589 376.906 -939.967 385.562C-940.346 394.435 -937.226 402.911 -931.13 409.404L-173.179 1218.37C-160.789 1231.59 -139.923 1232.3 -126.65 1219.94L684.287 464.192C690.617 458.313 694.296 450.306 694.693 441.667Z" fill="#4F73D1"/>
<path opacity="0.8" d="M-951.04 336.057C-950.608 326.283 -946.333 317.32 -938.993 310.827L-134.784 -401.641C-119.977 -414.752 -97.2179 -413.418 -84.0527 -398.648L630.508 403.615C636.73 410.612 639.958 419.611 639.543 428.971C639.11 438.746 634.836 447.709 627.514 454.201L-176.732 1166.69C-191.538 1179.8 -214.297 1178.45 -227.463 1163.68L-942.005 361.414C-948.245 354.417 -951.455 345.417 -951.04 336.057ZM635.449 428.791C635.81 420.495 632.961 412.523 627.442 406.32L-87.1186 -395.942C-98.7869 -409.035 -118.949 -410.226 -132.078 -398.612L-936.288 313.875C-942.781 319.628 -946.568 327.563 -946.947 336.238C-947.307 344.516 -944.458 352.505 -938.939 358.709L-224.397 1160.97C-212.728 1174.06 -192.584 1175.25 -179.437 1163.62L624.791 451.153C631.283 445.4 635.071 437.465 635.449 428.791Z" fill="#4F73D1"/>
<path opacity="0.8" d="M-958.056 286.733C-957.623 277.013 -953.114 267.869 -945.666 261.629L-148.147 -407.575C-141.005 -413.562 -131.97 -416.412 -122.7 -415.618C-113.413 -414.824 -105.009 -410.46 -99.0032 -403.355L572.149 392.217C577.793 398.908 580.697 407.402 580.318 416.112C579.903 425.815 575.377 434.977 567.929 441.234L-229.591 1110.42C-244.307 1122.77 -266.345 1120.86 -278.734 1106.2L-949.886 310.629C-955.531 303.938 -958.434 295.462 -958.056 286.733ZM576.242 415.932C576.585 408.231 574.024 400.729 569.047 394.832L-102.123 -400.722C-107.407 -406.998 -114.837 -410.839 -123.025 -411.542C-131.231 -412.246 -139.202 -409.739 -145.496 -404.455L-943.033 264.749C-949.616 270.268 -953.583 278.347 -953.962 286.914C-954.305 294.614 -951.744 302.099 -946.766 308.014L-275.596 1103.59C-264.668 1116.53 -245.208 1118.21 -232.224 1107.32L565.296 438.133C571.878 432.596 575.864 424.499 576.242 415.932Z" fill="#4F73D1"/>
<path opacity="0.8" d="M-965.089 237.391C-964.675 227.598 -960.004 218.491 -952.303 212.413L-161.493 -413.508C-154.405 -419.117 -145.568 -421.624 -136.587 -420.596C-127.606 -419.568 -119.563 -415.113 -113.936 -408.044L513.843 380.819C518.911 387.185 521.508 395.156 521.147 403.254C520.714 413.047 516.061 422.154 508.379 428.232L-282.45 1054.17C-297.058 1065.73 -318.392 1063.28 -330.006 1048.71L-957.785 259.844C-962.835 253.478 -965.432 245.507 -965.089 237.391ZM517.053 403.073C517.36 395.95 515.088 388.935 510.633 383.344L-117.146 -405.501C-122.087 -411.705 -129.157 -415.636 -137.056 -416.538C-144.955 -417.44 -152.728 -415.239 -158.95 -410.316L-949.76 215.605C-956.523 220.962 -960.617 228.951 -960.996 237.571C-961.302 244.695 -959.03 251.692 -954.575 257.301L-326.814 1046.16C-316.607 1058.99 -297.851 1061.15 -284.993 1050.96L505.818 425.039C512.581 419.701 516.675 411.694 517.053 403.073Z" fill="#4F73D1"/>
<path opacity="0.8" d="M-972.141 188.067C-971.708 178.166 -966.893 169.113 -958.94 163.197L-174.856 -419.441C-160.339 -430.226 -139.707 -427.214 -128.886 -412.732L455.484 369.421C459.992 375.445 462.301 382.911 461.958 390.395C461.525 400.296 456.71 409.35 448.757 415.265L-335.309 997.922C-349.826 1008.71 -370.458 1005.69 -381.278 991.231L-965.666 209.059C-970.175 203.017 -972.465 195.569 -972.141 188.067ZM457.882 390.233C458.171 383.669 456.151 377.14 452.219 371.856L-132.169 -410.298C-141.637 -422.976 -159.689 -425.609 -172.422 -416.159L-956.505 166.48C-963.466 171.656 -967.686 179.591 -968.065 188.247C-968.354 194.812 -966.334 201.322 -962.384 206.624L-377.996 988.778C-368.528 1001.46 -350.476 1004.09 -337.761 994.639L446.34 411.983C453.301 406.825 457.504 398.89 457.882 390.233Z" fill="#4F73D1"/>
<path opacity="0.8" d="M-979.228 138.725C-978.795 128.734 -973.818 119.698 -965.576 113.999L-188.202 -425.375C-173.774 -435.384 -153.864 -431.813 -143.819 -417.422L397.178 358.042C401.2 363.812 403.166 370.557 402.859 377.555C402.427 387.564 397.449 396.581 389.225 402.298L-388.185 941.672C-402.613 951.681 -422.523 948.11 -432.55 933.719L-973.547 158.256C-977.569 152.485 -979.535 145.74 -979.228 138.725ZM398.766 377.374C399.036 371.279 397.323 365.382 393.824 360.368L-147.173 -415.095C-155.92 -427.647 -173.269 -430.749 -185.857 -422.02L-963.25 117.354C-970.427 122.331 -974.756 130.194 -975.134 138.905C-975.405 145.001 -973.692 150.88 -970.175 155.911L-429.196 931.374C-420.449 943.926 -403.1 947.028 -390.512 938.3L386.881 398.926C394.041 393.966 398.387 386.085 398.766 377.374Z" fill="#4F73D1"/>
<path opacity="0.8" d="M-986.352 89.4005C-985.919 79.4094 -980.635 70.2118 -972.213 64.8015L-201.547 -431.308C-187.21 -440.542 -168.021 -436.412 -158.77 -422.11L338.819 346.644C342.317 352.054 344.031 358.294 343.742 364.696C343.309 374.687 338.025 383.885 329.603 389.295L-441.063 885.405C-455.4 894.62 -474.589 890.508 -483.84 876.207L-981.447 107.453C-984.927 102.043 -986.641 95.8027 -986.352 89.4005ZM339.666 364.516C339.919 358.961 338.44 353.551 335.392 348.844L-162.196 -419.91C-170.221 -432.318 -186.885 -435.889 -199.311 -427.881L-969.995 68.21C-977.299 72.917 -981.879 80.9062 -982.258 89.5628C-982.493 95.1174 -981.014 100.528 -977.984 105.217L-480.396 873.989C-472.37 886.378 -455.725 889.967 -443.281 881.96L327.403 385.869C334.707 381.18 339.288 373.19 339.666 364.516Z" fill="#4F73D1"/>
<path opacity="0.8" d="M-993.512 40.0583C-993.061 29.9049 -987.596 20.7614 -978.85 15.5855L-214.875 -437.241C-200.627 -445.681 -182.16 -440.992 -173.702 -426.781L280.495 335.282C283.489 340.314 284.95 346.049 284.698 351.874C284.247 362.009 278.764 371.171 270.036 376.347L-493.939 829.155C-508.169 837.596 -526.654 832.907 -535.112 818.695L-989.328 56.632C-992.321 51.6184 -993.764 45.8654 -993.512 40.0583ZM280.604 351.675C280.82 346.662 279.576 341.702 276.979 337.356L-177.219 -424.707C-184.541 -436.971 -200.483 -441.028 -212.783 -433.743L-976.758 19.0842C-984.314 23.5568 -989.057 31.4739 -989.436 40.2386C-989.652 45.2703 -988.408 50.2117 -985.811 54.558L-531.595 816.621C-524.273 828.885 -508.331 832.943 -496.031 825.639L267.943 372.812C275.5 368.339 280.225 360.44 280.604 351.675Z" fill="#4F73D1"/>
<path opacity="0.8" d="M-1000.73 -9.28406C-1000.27 -19.4555 -994.449 -28.7793 -985.486 -33.6306L-228.202 -443.175C-214.063 -450.821 -196.299 -445.573 -188.634 -431.452L222.172 323.902C224.697 328.555 225.905 333.767 225.671 339.015C225.22 349.187 219.377 358.51 210.432 363.362L-546.834 772.906C-560.973 780.552 -578.719 775.304 -586.402 761.183L-997.209 5.82883C-999.733 1.17593 -1000.94 -4.05408 -1000.73 -9.28406ZM221.595 338.835C221.793 334.326 220.747 329.836 218.583 325.85L-192.241 -429.523C-198.842 -441.66 -214.099 -446.168 -226.272 -439.604L-983.52 -30.0417C-991.347 -25.8036 -996.235 -17.9767 -996.631 -9.1037C-996.83 -4.59509 -995.784 -0.104523 -993.62 3.89911L-582.795 759.254C-576.195 771.373 -560.937 775.9 -548.782 769.317L208.484 359.773C216.311 355.535 221.198 347.708 221.595 338.835Z" fill="#4F73D1"/>
<path opacity="0.8" d="M-1007.98 -58.6443C-1007.52 -69.0141 -1001.43 -78.2838 -992.105 -82.8465L-241.529 -449.126C-227.481 -455.979 -210.456 -450.154 -203.567 -436.141L163.867 312.523C165.941 316.761 166.933 321.486 166.734 326.157C166.283 336.526 160.206 345.814 150.846 350.359L-599.729 716.638C-613.778 723.491 -630.803 717.684 -637.674 703.653L-1005.11 -44.9922C-1007.18 -49.2303 -1008.17 -53.9553 -1007.98 -58.6443ZM162.622 325.976C162.803 321.973 161.937 317.933 160.152 314.308L-207.264 -434.338C-213.143 -446.331 -227.715 -451.308 -239.744 -445.447L-990.283 -79.1675C-998.273 -75.272 -1003.48 -67.3369 -1003.86 -58.4639C-1004.04 -54.4603 -1003.2 -50.4206 -1001.41 -46.7957L-633.995 701.868C-628.116 713.861 -613.544 718.839 -601.515 712.977L149.042 346.716C157.032 342.802 162.226 334.867 162.622 325.976Z" fill="#4F73D1"/>
</g>
</svg>
